<?xml version="1.0" encoding="utf-8"?>
<!-- Generator: Adobe Illustrator 23.0.1, SVG Export Plug-In . SVG Version: 6.00 Build 0)  -->
<svg version="1.1" id="Camada_1" xmlns="http://www.w3.org/2000/svg" xmlns:xlink="http://www.w3.org/1999/xlink" x="0px" y="0px"
	 viewBox="0 0 507 388" style="enable-background:new 0 0 507 388;" xml:space="preserve">
<style type="text/css">
	.st0{fill:#1DA1F2;}
</style>
<g>
	<path class="st0" d="M285.86,367.88c-17.51-0.01-35.02,0.13-52.53-0.07c-9.36-0.1-19.81,1.08-20.67-12.98
		c-0.71-11.63,7.23-24.25,18.56-24.02c18.51,0.39,38.78-7.89,55.14,8.46c1.77,1.77,5.9,1.53,8.96,1.59
		c10.32,0.21,20.71-0.59,30.97,0.3c26.29,2.28,44.74-10.1,58.95-30.51c71.03-102.03,9.42-243.07-113.85-257.81
		c-62.73-7.5-115.21,15.59-152.2,67.22c-37.61,52.5-41.01,109.39-13.94,167.99c4.2,9.08,13.26,18.96,0.22,26.74
		c-12.43,7.42-18.05-2.74-23.65-12.19c-1.69-2.86-7.04-4.61-10.89-4.95c-26.95-2.43-46.44-22.55-46.86-49.61
		c-0.33-21.55-0.3-43.1-0.03-64.65c0.35-28.06,19.29-47.52,47.29-50.71c4.83-0.55,10.72-5.35,13.33-9.82
		c32.22-55.15,79.89-87.76,142.81-96.73c75.78-10.81,151.66,27.54,189.35,94.66c4.58,8.16,9.1,12.4,19.17,12.87
		c22.83,1.08,42.41,22.15,43.06,45.68c0.66,23.78,0.63,47.6,0.02,71.38c-0.64,24.64-20.61,45.22-45.37,46.35
		c-8.71,0.4-11.82,4.69-16.16,10.95c-10.35,14.94-20.75,30.26-33.59,42.94c-13.5,13.33-31.82,17.45-50.96,17
		C317.29,367.6,301.57,367.89,285.86,367.88z"/>
	<path class="st0" d="M382.12,227.14c-1.93,9.05-4.58,24.45-8.62,39.49c-3.45,12.86-12.34,19.53-26.25,17.11
		c-19.37-3.38-38.71-6.97-58.04-10.57c-36.02-6.71-71.33-1.68-106.49,6.18c-5.23,1.17-10.5,2.19-15.77,3.17
		c-23.11,4.28-32.94-0.74-39.2-23.04c-14.08-50.12-2.87-94.69,31.96-133.22c9.16-10.14,21.17-13,34.37-10.47
		c15.79,3.03,31.55,9.17,47.25,8.97c21.64-0.28,43.37-4.42,64.76-8.45c17.91-3.38,31.32,1.67,42.72,15.45
		C370.22,157.61,380.65,187.34,382.12,227.14z M343.87,199.43c-0.18-13.38-11.55-24.11-25.32-23.88
		c-13.8,0.23-24.23,11.29-23.7,25.15c0.48,12.72,11.89,23.9,24.33,23.83C332.11,224.46,344.04,212.34,343.87,199.43z M184.28,175.5
		c-13.64-0.02-24.82,11.03-24.75,24.49c0.06,12.85,12.44,24.87,25.21,24.5c12.59-0.37,23.63-11.62,23.88-24.34
		C208.9,186.48,198.08,175.53,184.28,175.5z"/>
</g>
</svg>
